<svg xmlns="http://www.w3.org/2000/svg" xmlns:xlink="http://www.w3.org/1999/xlink" width="500" zoomAndPan="magnify" viewBox="0 0 375 374.999991" height="500" preserveAspectRatio="xMidYMid meet" version="1.0"><defs><clipPath id="20759464de"><path d="M 104 24.140625 L 275 24.140625 L 275 194 L 104 194 Z M 104 24.140625 " clip-rule="nonzero"/></clipPath><clipPath id="66820990e2"><path d="M 353 348 L 363 348 L 363 351.140625 L 353 351.140625 Z M 353 348 " clip-rule="nonzero"/></clipPath><clipPath id="1a8c619a5a"><path d="M 335 348 L 348 348 L 348 351.140625 L 335 351.140625 Z M 335 348 " clip-rule="nonzero"/></clipPath><clipPath id="63f3e3808d"><path d="M 54 348 L 327 348 L 327 351.140625 L 54 351.140625 Z M 54 348 " clip-rule="nonzero"/></clipPath><clipPath id="f5e32e46e5"><path d="M 14 348 L 40 348 L 40 351.140625 L 14 351.140625 Z M 14 348 " clip-rule="nonzero"/></clipPath></defs><path fill="#1c1f26" d="M 329.617188 300.472656 C 329.617188 302.726562 327.792969 304.546875 325.546875 304.546875 L 52.226562 304.546875 C 49.980469 304.546875 48.160156 302.726562 48.160156 300.472656 L 48.160156 120.183594 C 48.160156 117.933594 49.980469 116.109375 52.226562 116.109375 L 325.546875 116.109375 C 327.792969 116.109375 329.617188 117.933594 329.617188 120.183594 L 329.617188 300.472656 " fill-opacity="1" fill-rule="nonzero"/><path fill="#ee253d" d="M 48.160156 286.546875 L 329.617188 286.546875 L 329.617188 131.460938 L 48.160156 131.460938 Z M 48.160156 286.546875 " fill-opacity="1" fill-rule="nonzero"/><path fill="#0b0b0b" d="M 193.144531 124.875 C 193.144531 127.226562 191.242188 129.136719 188.886719 129.136719 C 186.53125 129.136719 184.625 127.226562 184.625 124.875 C 184.625 122.519531 186.53125 120.605469 188.886719 120.605469 C 191.242188 120.605469 193.144531 122.519531 193.144531 124.875 " fill-opacity="1" fill-rule="nonzero"/><path fill="#31343e" d="M 325.546875 304.546875 L 52.226562 304.546875 C 49.980469 304.546875 48.160156 302.726562 48.160156 300.472656 L 48.160156 286.546875 L 308.65625 286.546875 L 329.617188 300.472656 C 329.617188 302.726562 327.792969 304.546875 325.546875 304.546875 M 75.332031 131.460938 L 48.160156 131.460938 L 48.160156 120.183594 C 48.160156 117.933594 49.980469 116.109375 52.226562 116.109375 L 75.332031 131.460938 " fill-opacity="1" fill-rule="nonzero"/><path fill="#ef344d" d="M 308.65625 286.546875 L 48.160156 286.546875 L 48.160156 131.460938 L 75.332031 131.460938 L 308.65625 286.546875 " fill-opacity="1" fill-rule="nonzero"/><path fill="#1c1f26" d="M 220.886719 328.949219 L 158.179688 328.949219 L 158.179688 304.546875 L 220.886719 304.546875 L 220.886719 328.949219 " fill-opacity="1" fill-rule="nonzero"/><path fill="#121417" d="M 234.414062 340.839844 L 147.472656 340.839844 L 158.179688 328.949219 L 220.886719 328.949219 L 234.414062 340.839844 " fill-opacity="1" fill-rule="nonzero"/><path fill="#080707" d="M 234.414062 349.757812 L 147.472656 349.757812 L 147.472656 340.839844 L 234.414062 340.839844 L 234.414062 349.757812 " fill-opacity="1" fill-rule="nonzero"/><path fill="#fbbe18" d="M 267.4375 98.566406 C 273.257812 104.394531 273.257812 113.847656 267.4375 119.671875 L 198.925781 188.242188 C 193.101562 194.070312 183.660156 194.070312 177.835938 188.242188 L 109.328125 119.671875 C 103.503906 113.847656 103.503906 104.394531 109.328125 98.566406 L 177.835938 30 C 183.660156 24.167969 193.101562 24.167969 198.925781 30 L 267.4375 98.566406 " fill-opacity="1" fill-rule="nonzero"/><path fill="#f79610" d="M 189.390625 191.382812 C 185.882812 191.378906 182.386719 190.046875 179.714844 187.375 L 111.207031 118.804688 C 108.53125 116.125 107.203125 112.628906 107.199219 109.121094 C 107.203125 105.613281 108.53125 102.113281 111.207031 99.433594 L 179.714844 30.871094 C 182.390625 28.191406 185.886719 26.859375 189.390625 26.855469 C 192.894531 26.859375 196.390625 28.191406 199.066406 30.871094 L 204.925781 36.734375 L 200.589844 41.074219 L 200.210938 40.6875 C 197.320312 37.800781 193.476562 36.203125 189.390625 36.203125 C 185.308594 36.203125 181.464844 37.800781 178.578125 40.6875 L 121.019531 98.296875 C 118.132812 101.1875 116.542969 105.03125 116.542969 109.121094 C 116.542969 113.210938 118.132812 117.054688 121.019531 119.949219 L 178.578125 177.550781 C 181.464844 180.441406 185.308594 182.035156 189.390625 182.035156 C 193.476562 182.035156 197.320312 180.441406 200.207031 177.550781 L 200.589844 177.167969 L 204.925781 181.507812 L 199.066406 187.375 C 196.390625 190.046875 192.894531 191.378906 189.390625 191.382812 M 189.390625 176.496094 C 186.78125 176.496094 184.332031 175.480469 182.488281 173.632812 L 124.9375 116.027344 C 123.089844 114.183594 122.074219 111.730469 122.074219 109.121094 C 122.074219 106.511719 123.089844 104.058594 124.9375 102.210938 L 182.488281 44.605469 C 184.332031 42.761719 186.78125 41.746094 189.390625 41.746094 C 191.996094 41.746094 194.449219 42.761719 196.292969 44.605469 L 196.675781 44.988281 L 163.9375 77.753906 L 162.335938 74.332031 L 159.730469 76.945312 L 157.121094 79.550781 L 160.539062 81.15625 L 143.144531 98.566406 C 137.320312 104.394531 137.320312 113.847656 143.144531 119.671875 L 196.675781 173.25 L 196.292969 173.632812 C 194.449219 175.480469 191.996094 176.496094 189.390625 176.496094 " fill-opacity="1" fill-rule="nonzero"/><g clip-path="url(#20759464de)"><path fill="#191b21" d="M 268.445312 98.566406 L 267.574219 99.433594 C 270.25 102.113281 271.582031 105.613281 271.582031 109.121094 C 271.582031 112.628906 270.246094 116.125 267.574219 118.804688 L 199.066406 187.375 C 196.390625 190.046875 192.894531 191.378906 189.390625 191.382812 C 185.882812 191.378906 182.386719 190.046875 179.714844 187.375 L 111.207031 118.804688 C 108.53125 116.125 107.203125 112.628906 107.199219 109.121094 C 107.203125 105.613281 108.53125 102.113281 111.207031 99.433594 L 179.714844 30.871094 C 182.390625 28.191406 185.886719 26.859375 189.390625 26.855469 C 192.894531 26.859375 196.390625 28.191406 199.066406 30.871094 L 267.574219 99.433594 L 268.445312 98.566406 L 269.316406 97.695312 L 200.804688 29.128906 C 197.660156 25.972656 193.519531 24.394531 189.390625 24.398438 C 185.265625 24.394531 181.125 25.972656 177.976562 29.128906 L 109.46875 97.695312 C 106.320312 100.84375 104.738281 104.988281 104.742188 109.121094 C 104.738281 113.25 106.320312 117.394531 109.46875 120.542969 L 177.976562 189.113281 C 181.125 192.265625 185.265625 193.847656 189.390625 193.84375 C 193.519531 193.847656 197.65625 192.265625 200.804688 189.113281 L 269.316406 120.542969 C 272.460938 117.394531 274.046875 113.25 274.042969 109.121094 C 274.046875 104.988281 272.460938 100.84375 269.316406 97.695312 L 268.445312 98.566406 " fill-opacity="1" fill-rule="nonzero"/></g><path fill="#191b21" d="M 189.390625 41.746094 C 186.78125 41.746094 184.332031 42.761719 182.488281 44.605469 L 124.9375 102.210938 C 123.089844 104.058594 122.074219 106.511719 122.074219 109.121094 C 122.074219 111.730469 123.089844 114.183594 124.9375 116.027344 L 182.488281 173.632812 C 184.332031 175.480469 186.78125 176.496094 189.390625 176.496094 C 191.996094 176.496094 194.449219 175.480469 196.292969 173.632812 L 253.851562 116.027344 C 255.691406 114.183594 256.707031 111.730469 256.707031 109.121094 C 256.707031 106.511719 255.691406 104.058594 253.851562 102.210938 L 196.292969 44.605469 C 194.449219 42.761719 191.996094 41.746094 189.390625 41.746094 M 189.390625 182.035156 C 185.308594 182.035156 181.464844 180.441406 178.578125 177.550781 L 121.019531 119.949219 C 118.132812 117.054688 116.542969 113.210938 116.542969 109.121094 C 116.542969 105.03125 118.132812 101.1875 121.019531 98.296875 L 178.578125 40.6875 C 181.464844 37.800781 185.308594 36.203125 189.390625 36.203125 C 193.476562 36.203125 197.320312 37.800781 200.210938 40.6875 L 257.761719 98.296875 C 260.652344 101.1875 262.242188 105.03125 262.242188 109.121094 C 262.242188 113.210938 260.652344 117.054688 257.761719 119.949219 L 200.207031 177.550781 C 197.320312 180.441406 193.476562 182.035156 189.390625 182.035156 " fill-opacity="1" fill-rule="nonzero"/><path fill="#ffffff" d="M 223.1875 79.453125 L 246.023438 102.3125 C 247.90625 104.195312 248.839844 106.652344 248.84375 109.121094 C 248.839844 111.585938 247.90625 114.046875 246.023438 115.925781 L 225.085938 136.882812 L 226.824219 138.625 L 247.765625 117.664062 C 250.121094 115.3125 251.304688 112.207031 251.304688 109.121094 C 251.304688 106.03125 250.121094 102.929688 247.765625 100.570312 L 224.925781 77.714844 L 223.1875 79.453125 " fill-opacity="1" fill-rule="nonzero"/><path fill="#1a180e" d="M 214.816406 139.464844 C 212.929688 139.464844 211.039062 138.746094 209.597656 137.304688 L 190.996094 118.6875 L 190.246094 119.433594 L 188.492188 117.667969 L 193.445312 112.710938 L 191.15625 110.425781 L 176.082031 125.511719 C 177.808594 128.109375 177.523438 129.757812 177.523438 129.757812 C 177.488281 129.960938 177.453125 130.15625 177.417969 130.347656 L 177.375 130.535156 C 177.347656 130.664062 177.324219 130.789062 177.289062 130.917969 L 177.242188 131.125 C 177.214844 131.238281 177.183594 131.355469 177.15625 131.460938 L 177.101562 131.667969 C 177.074219 131.78125 177.042969 131.886719 177.011719 131.992188 L 176.953125 132.1875 C 176.921875 132.296875 176.886719 132.410156 176.847656 132.519531 L 176.796875 132.675781 C 176.746094 132.832031 176.691406 132.988281 176.632812 133.136719 L 176.605469 133.203125 C 176.554688 133.328125 176.507812 133.460938 176.457031 133.582031 L 176.394531 133.734375 C 176.355469 133.828125 176.3125 133.917969 176.269531 134.003906 L 176.199219 134.171875 L 176.078125 134.414062 L 176 134.574219 L 175.875 134.804688 L 175.796875 134.949219 C 175.75 135.03125 175.699219 135.117188 175.652344 135.199219 L 175.589844 135.304688 C 175.519531 135.417969 175.445312 135.535156 175.375 135.644531 L 175.347656 135.683594 C 175.28125 135.78125 175.214844 135.871094 175.152344 135.960938 L 175.078125 136.058594 L 174.921875 136.269531 L 174.84375 136.367188 L 174.683594 136.558594 L 174.605469 136.648438 L 174.433594 136.839844 L 174.367188 136.914062 L 174.152344 137.132812 L 174.125 137.160156 C 173.953125 137.324219 173.78125 137.476562 173.613281 137.621094 L 173.351562 137.824219 L 173.3125 137.855469 L 173.085938 138.019531 L 173.046875 138.042969 C 172.964844 138.101562 172.882812 138.15625 172.796875 138.210938 L 172.792969 138.210938 C 171.179688 139.230469 169.511719 139.464844 168.324219 139.464844 C 168.191406 139.464844 168.0625 139.460938 167.9375 139.457031 C 167.808594 139.457031 167.15625 139.445312 166.667969 139.304688 L 170.386719 132.640625 C 170.386719 132.640625 170.851562 131.839844 170.523438 130.777344 C 170.417969 130.464844 170.242188 130.125 169.96875 129.761719 L 169.84375 129.609375 C 169.433594 129.125 168.84375 128.625 167.976562 128.128906 L 167.691406 127.96875 C 166.515625 127.320312 165.574219 127.105469 164.84375 127.105469 C 164.542969 127.105469 164.277344 127.140625 164.042969 127.203125 C 163.097656 127.519531 162.722656 128.03125 162.722656 128.03125 L 158.867188 134.9375 C 158.867188 134.9375 152.367188 128.566406 161.304688 120.683594 C 161.304688 120.683594 161.417969 120.589844 161.644531 120.453125 L 161.648438 120.453125 L 161.691406 120.429688 L 161.828125 120.359375 L 161.898438 120.324219 L 162.0625 120.25 L 162.132812 120.21875 C 162.21875 120.183594 162.304688 120.148438 162.40625 120.109375 L 162.433594 120.101562 C 162.53125 120.066406 162.628906 120.039062 162.726562 120.003906 L 162.820312 119.980469 C 162.914062 119.957031 163.011719 119.929688 163.113281 119.90625 L 163.207031 119.882812 C 163.347656 119.855469 163.488281 119.824219 163.640625 119.800781 L 163.652344 119.800781 C 163.796875 119.773438 163.949219 119.757812 164.109375 119.738281 L 164.238281 119.726562 C 164.371094 119.710938 164.507812 119.703125 164.652344 119.695312 L 164.792969 119.6875 C 164.949219 119.683594 165.113281 119.675781 165.285156 119.675781 C 165.320312 119.675781 165.347656 119.675781 165.378906 119.679688 L 165.386719 119.679688 C 165.585938 119.679688 165.792969 119.691406 166.003906 119.707031 L 166.195312 119.71875 C 166.363281 119.730469 166.53125 119.75 166.714844 119.765625 L 166.917969 119.792969 C 167.082031 119.808594 167.253906 119.835938 167.421875 119.863281 L 184.003906 103.265625 L 163.15625 82.402344 L 163.164062 82.390625 L 160.539062 81.15625 L 163.9375 77.753906 L 165.171875 80.382812 L 165.179688 80.375 L 186.027344 101.242188 L 202.519531 84.738281 L 202.824219 84.867188 C 200.601562 81.90625 200.933594 79.984375 200.933594 79.984375 C 200.96875 79.78125 201.003906 79.589844 201.042969 79.394531 L 201.085938 79.207031 C 201.109375 79.078125 201.136719 78.953125 201.167969 78.828125 L 201.21875 78.617188 C 201.242188 78.503906 201.273438 78.390625 201.300781 78.28125 L 201.355469 78.074219 C 201.382812 77.964844 201.417969 77.859375 201.449219 77.75 L 201.503906 77.558594 C 201.539062 77.441406 201.574219 77.335938 201.613281 77.226562 L 201.664062 77.066406 C 201.714844 76.910156 201.769531 76.757812 201.824219 76.605469 L 201.847656 76.554688 C 201.898438 76.421875 201.953125 76.289062 202 76.160156 L 202.0625 76.015625 C 202.101562 75.921875 202.144531 75.828125 202.1875 75.738281 L 202.257812 75.578125 C 202.300781 75.492188 202.339844 75.410156 202.382812 75.328125 L 202.457031 75.175781 L 202.585938 74.933594 L 202.660156 74.800781 C 202.710938 74.710938 202.761719 74.621094 202.8125 74.535156 L 202.867188 74.441406 C 202.941406 74.324219 203.011719 74.210938 203.085938 74.097656 L 203.097656 74.085938 C 203.164062 73.980469 203.238281 73.878906 203.308594 73.777344 L 203.371094 73.695312 L 203.542969 73.472656 L 203.609375 73.386719 L 203.78125 73.175781 L 203.847656 73.101562 L 204.035156 72.894531 L 204.085938 72.835938 C 204.167969 72.753906 204.246094 72.667969 204.324219 72.59375 L 204.328125 72.589844 C 204.503906 72.421875 204.675781 72.265625 204.851562 72.121094 L 204.863281 72.109375 C 204.945312 72.042969 205.03125 71.976562 205.113281 71.914062 L 205.136719 71.894531 L 205.382812 71.714844 L 205.398438 71.707031 C 207.097656 70.535156 208.886719 70.277344 210.140625 70.277344 C 210.273438 70.277344 210.402344 70.277344 210.527344 70.285156 C 210.671875 70.285156 211.308594 70.300781 211.792969 70.441406 L 208.074219 77.101562 C 208.074219 77.101562 207.605469 77.90625 207.9375 78.96875 C 208.039062 79.277344 208.214844 79.617188 208.484375 79.972656 L 208.621094 80.140625 C 209.027344 80.621094 209.617188 81.121094 210.484375 81.617188 L 210.484375 81.613281 L 210.625 81.695312 L 210.769531 81.773438 L 210.765625 81.773438 C 211.945312 82.421875 212.882812 82.640625 213.613281 82.640625 C 213.914062 82.640625 214.183594 82.605469 214.414062 82.542969 C 215.359375 82.222656 215.734375 81.714844 215.734375 81.714844 L 219.59375 74.808594 C 219.59375 74.808594 226.09375 81.175781 217.152344 89.0625 C 217.152344 89.0625 217.027344 89.171875 216.753906 89.320312 L 216.636719 89.386719 L 216.554688 89.421875 L 216.402344 89.492188 L 216.324219 89.527344 C 216.242188 89.5625 216.148438 89.597656 216.054688 89.632812 L 216.011719 89.644531 C 215.925781 89.679688 215.832031 89.707031 215.734375 89.734375 L 215.632812 89.765625 C 215.542969 89.789062 215.449219 89.8125 215.347656 89.835938 L 215.25 89.863281 C 215.113281 89.890625 214.972656 89.917969 214.820312 89.941406 L 214.796875 89.945312 C 214.65625 89.972656 214.507812 89.988281 214.351562 90.007812 L 214.214844 90.019531 C 214.085938 90.03125 213.953125 90.039062 213.808594 90.046875 L 213.667969 90.054688 C 213.515625 90.0625 213.359375 90.066406 213.195312 90.066406 C 213.15625 90.066406 213.121094 90.066406 213.082031 90.066406 L 213.070312 90.066406 C 212.875 90.0625 212.664062 90.054688 212.453125 90.039062 L 212.261719 90.023438 C 212.097656 90.015625 211.925781 89.996094 211.746094 89.976562 L 211.601562 89.964844 L 193.183594 108.402344 L 195.46875 110.691406 L 200.417969 105.730469 L 202.179688 107.492188 L 199.429688 110.25 L 201.433594 108.238281 L 220.035156 126.855469 C 222.5625 129.382812 222.875 133.285156 220.976562 136.152344 C 220.90625 136.253906 220.839844 136.355469 220.765625 136.453125 L 220.753906 136.46875 C 220.6875 136.5625 220.613281 136.65625 220.542969 136.746094 L 220.472656 136.824219 L 220.296875 137.027344 C 220.214844 137.121094 220.125 137.214844 220.035156 137.304688 C 218.59375 138.746094 216.703125 139.464844 214.816406 139.464844 " fill-opacity="1" fill-rule="nonzero"/><path fill="#1a150d" d="M 160.539062 81.15625 L 157.121094 79.550781 L 159.730469 76.945312 L 162.335938 74.332031 L 163.9375 77.753906 L 160.539062 81.15625 " fill-opacity="1" fill-rule="nonzero"/><path fill="#ffffff" d="M 136.535156 213.359375 L 125.535156 232.300781 L 136.535156 232.300781 Z M 136.289062 252.214844 L 136.289062 240.472656 L 115.425781 240.472656 L 115.425781 231.328125 L 135 198.464844 L 146.804688 198.464844 L 146.804688 232.300781 L 152.871094 232.300781 L 152.871094 240.472656 L 146.804688 240.472656 L 146.804688 252.214844 L 136.289062 252.214844 " fill-opacity="1" fill-rule="nonzero"/><path fill="#ffffff" d="M 180.773438 225.417969 C 180.773438 210.527344 178.269531 205.101562 173.171875 205.101562 C 168.078125 205.101562 165.492188 210.445312 165.492188 225.261719 C 165.492188 240.230469 168.078125 245.578125 173.171875 245.578125 C 178.269531 245.578125 180.773438 240.074219 180.773438 225.417969 Z M 154.574219 225.097656 C 154.574219 204.9375 161.285156 196.683594 172.847656 196.683594 C 184.414062 196.683594 191.449219 204.9375 191.449219 224.933594 C 191.449219 244.929688 184.414062 254.078125 172.847656 254.078125 C 161.285156 254.078125 154.574219 245.332031 154.574219 225.097656 " fill-opacity="1" fill-rule="nonzero"/><path fill="#ffffff" d="M 213.859375 213.359375 L 202.855469 232.300781 L 213.859375 232.300781 Z M 213.613281 252.214844 L 213.613281 240.472656 L 192.746094 240.472656 L 192.746094 231.328125 L 212.316406 198.464844 L 224.125 198.464844 L 224.125 232.300781 L 230.195312 232.300781 L 230.195312 240.472656 L 224.125 240.472656 L 224.125 252.214844 L 213.613281 252.214844 " fill-opacity="1" fill-rule="nonzero"/><path fill="#ffffff" d="M 256.613281 243.914062 L 256.613281 251.730469 L 233.058594 251.730469 L 233.058594 244.148438 L 236.085938 244.148438 L 236.085938 248.699219 L 242.582031 248.699219 L 242.582031 245.496094 L 245.613281 245.496094 L 245.613281 248.699219 L 253.585938 248.699219 L 253.585938 243.914062 L 256.613281 243.914062 " fill-opacity="1" fill-rule="nonzero"/><path fill="#ffffff" d="M 243.59375 238.523438 L 243.59375 236.335938 L 236.085938 236.335938 L 236.085938 238.523438 Z M 246.621094 235.964844 L 246.621094 238.523438 L 256.613281 238.523438 L 256.613281 241.554688 L 233.058594 241.554688 L 233.058594 235.324219 C 233.058594 234.183594 234.003906 233.308594 235.078125 233.308594 L 243.289062 233.308594 C 244.128906 233.308594 244.769531 233.746094 244.9375 234.351562 C 245.136719 233.441406 246.082031 232.933594 246.921875 232.933594 L 256.613281 232.933594 L 256.613281 235.964844 L 246.621094 235.964844 " fill-opacity="1" fill-rule="nonzero"/><path fill="#ffffff" d="M 243.59375 227.378906 L 243.59375 225.1875 L 236.085938 225.1875 L 236.085938 227.378906 Z M 246.621094 224.820312 L 246.621094 227.378906 L 256.613281 227.378906 L 256.613281 230.410156 L 233.058594 230.410156 L 233.058594 224.179688 C 233.058594 223.03125 234.003906 222.15625 235.078125 222.15625 L 243.289062 222.15625 C 244.128906 222.15625 244.769531 222.59375 244.9375 223.203125 C 245.136719 222.289062 246.082031 221.789062 246.921875 221.789062 L 256.613281 221.789062 L 256.613281 224.820312 L 246.621094 224.820312 " fill-opacity="1" fill-rule="nonzero"/><path fill="#ffffff" d="M 236.085938 213.667969 L 236.085938 216.230469 L 253.585938 216.230469 L 253.585938 213.667969 Z M 235.078125 219.261719 C 234.003906 219.261719 233.058594 218.316406 233.058594 217.238281 L 233.058594 212.660156 C 233.058594 211.515625 234.003906 210.636719 235.078125 210.636719 L 254.628906 210.636719 C 255.707031 210.636719 256.613281 211.546875 256.613281 212.660156 L 256.613281 217.238281 C 256.613281 218.316406 255.707031 219.261719 254.628906 219.261719 L 235.078125 219.261719 " fill-opacity="1" fill-rule="nonzero"/><path fill="#ffffff" d="M 243.59375 204.914062 L 243.59375 202.722656 L 236.085938 202.722656 L 236.085938 204.914062 Z M 246.621094 202.351562 L 246.621094 204.914062 L 256.613281 204.914062 L 256.613281 207.945312 L 233.058594 207.945312 L 233.058594 201.714844 C 233.058594 200.566406 234.003906 199.691406 235.078125 199.691406 L 243.289062 199.691406 C 244.128906 199.691406 244.769531 200.128906 244.9375 200.738281 C 245.136719 199.824219 246.082031 199.324219 246.921875 199.324219 L 256.613281 199.324219 L 256.613281 202.351562 L 246.621094 202.351562 " fill-opacity="1" fill-rule="nonzero"/><path fill="#ffffff" d="M 138.359375 263.535156 C 138.359375 265.320312 138.535156 266.589844 138.894531 267.335938 C 139.25 268.082031 139.832031 268.457031 140.648438 268.457031 C 141.445312 268.457031 142.03125 268.054688 142.40625 267.253906 C 142.785156 266.453125 142.972656 265.191406 142.972656 263.472656 C 142.972656 261.714844 142.792969 260.449219 142.433594 259.675781 C 142.070312 258.902344 141.492188 258.515625 140.691406 258.515625 C 139.863281 258.515625 139.265625 258.902344 138.902344 259.671875 C 138.539062 260.4375 138.359375 261.726562 138.359375 263.535156 Z M 137.144531 273.175781 L 137.144531 257.753906 L 138.359375 257.753906 L 138.359375 258.976562 C 138.699219 258.464844 139.066406 258.082031 139.46875 257.839844 C 139.871094 257.597656 140.328125 257.480469 140.84375 257.480469 C 142.039062 257.480469 142.910156 257.953125 143.460938 258.902344 C 144.011719 259.859375 144.285156 261.378906 144.285156 263.472656 C 144.285156 265.527344 143.996094 267.050781 143.414062 268.058594 C 142.832031 269.0625 141.953125 269.566406 140.773438 269.566406 C 140.234375 269.566406 139.769531 269.453125 139.371094 269.226562 C 138.972656 268.996094 138.636719 268.652344 138.359375 268.191406 L 138.359375 273.175781 L 137.144531 273.175781 " fill-opacity="1" fill-rule="nonzero"/><path fill="#ffffff" d="M 150.957031 263.074219 C 149.191406 263.761719 148.097656 264.316406 147.671875 264.738281 C 147.25 265.15625 147.035156 265.699219 147.035156 266.367188 C 147.035156 267.011719 147.1875 267.523438 147.484375 267.894531 C 147.78125 268.269531 148.191406 268.457031 148.703125 268.457031 C 149.476562 268.457031 150.046875 268.175781 150.414062 267.617188 C 150.773438 267.054688 150.957031 266.171875 150.957031 264.96875 Z M 153.085938 269.25 C 152.890625 269.289062 152.738281 269.320312 152.605469 269.335938 C 152.476562 269.347656 152.351562 269.351562 152.230469 269.351562 C 151.925781 269.351562 151.667969 269.273438 151.460938 269.113281 C 151.253906 268.953125 151.089844 268.707031 150.976562 268.375 C 150.652344 268.761719 150.277344 269.054688 149.855469 269.25 C 149.433594 269.449219 148.964844 269.546875 148.453125 269.546875 C 147.609375 269.546875 146.953125 269.265625 146.476562 268.703125 C 146 268.144531 145.761719 267.367188 145.761719 266.367188 C 145.761719 265.488281 145.976562 264.785156 146.398438 264.253906 C 146.820312 263.71875 147.558594 263.246094 148.601562 262.839844 C 148.820312 262.757812 149.117188 262.65625 149.488281 262.523438 C 150.492188 262.175781 151 261.71875 151 261.144531 L 151 260.191406 C 151 259.582031 150.867188 259.132812 150.601562 258.855469 C 150.335938 258.578125 149.902344 258.4375 149.308594 258.4375 C 148.675781 258.4375 148.195312 258.617188 147.867188 258.976562 C 147.535156 259.339844 147.359375 259.875 147.34375 260.589844 L 146.15625 260.589844 L 146.15625 260.34375 C 146.15625 259.46875 146.449219 258.769531 147.023438 258.253906 C 147.601562 257.734375 148.375 257.480469 149.347656 257.480469 C 149.925781 257.480469 150.410156 257.550781 150.804688 257.691406 C 151.199219 257.832031 151.511719 258.058594 151.75 258.355469 C 151.914062 258.5625 152.03125 258.800781 152.101562 259.074219 C 152.171875 259.347656 152.210938 259.75 152.210938 260.269531 L 152.210938 267.082031 C 152.210938 267.660156 152.261719 268.015625 152.363281 268.152344 C 152.460938 268.285156 152.660156 268.355469 152.964844 268.355469 L 153.085938 268.355469 L 153.085938 269.25 " fill-opacity="1" fill-rule="nonzero"/><path fill="#ffffff" d="M 160.449219 263.515625 C 160.449219 261.707031 160.265625 260.414062 159.902344 259.648438 C 159.539062 258.882812 158.945312 258.5 158.117188 258.5 C 157.316406 258.5 156.734375 258.886719 156.371094 259.664062 C 156.015625 260.445312 155.832031 261.714844 155.832031 263.472656 C 155.832031 265.191406 156.023438 266.453125 156.394531 267.253906 C 156.769531 268.054688 157.355469 268.457031 158.15625 268.457031 C 158.96875 268.457031 159.554688 268.078125 159.914062 267.324219 C 160.265625 266.570312 160.449219 265.300781 160.449219 263.515625 Z M 160.449219 268.191406 C 160.167969 268.652344 159.832031 268.996094 159.4375 269.226562 C 159.035156 269.453125 158.566406 269.566406 158.023438 269.566406 C 156.847656 269.566406 155.972656 269.0625 155.394531 268.058594 C 154.8125 267.050781 154.519531 265.527344 154.519531 263.472656 C 154.519531 261.378906 154.792969 259.855469 155.347656 258.898438 C 155.894531 257.9375 156.769531 257.457031 157.960938 257.457031 C 158.480469 257.457031 158.9375 257.582031 159.335938 257.820312 C 159.738281 258.0625 160.109375 258.441406 160.449219 258.953125 L 160.449219 257.777344 L 161.660156 257.777344 L 161.660156 268.4375 C 161.660156 270.203125 161.378906 271.433594 160.820312 272.128906 C 160.261719 272.828125 159.300781 273.175781 157.941406 273.175781 C 157.085938 273.175781 156.371094 272.929688 155.804688 272.4375 C 155.234375 271.945312 154.921875 271.300781 154.867188 270.507812 L 156.089844 270.507812 C 156.167969 271.023438 156.390625 271.414062 156.75 271.675781 C 157.109375 271.941406 157.597656 272.074219 158.214844 272.074219 C 158.945312 272.074219 159.496094 271.820312 159.878906 271.3125 C 160.257812 270.800781 160.449219 270.0625 160.449219 269.089844 L 160.449219 268.191406 " fill-opacity="1" fill-rule="nonzero"/><path fill="#ffffff" d="M 165.324219 262.363281 L 169.503906 262.363281 C 169.503906 262.308594 169.503906 262.21875 169.511719 262.105469 C 169.519531 261.988281 169.519531 261.910156 169.519531 261.863281 C 169.519531 260.804688 169.34375 259.980469 168.988281 259.40625 C 168.628906 258.828125 168.125 258.539062 167.472656 258.539062 C 166.773438 258.539062 166.242188 258.855469 165.875 259.488281 C 165.507812 260.125 165.324219 261.046875 165.324219 262.261719 Z M 170.714844 265.539062 C 170.636719 266.839844 170.320312 267.824219 169.757812 268.507812 C 169.191406 269.1875 168.40625 269.527344 167.394531 269.527344 C 166.242188 269.527344 165.394531 269.039062 164.84375 268.054688 C 164.289062 267.074219 164.015625 265.558594 164.015625 263.515625 C 164.015625 261.460938 164.296875 259.941406 164.867188 258.953125 C 165.4375 257.972656 166.3125 257.480469 167.496094 257.480469 C 168.566406 257.480469 169.382812 257.898438 169.9375 258.734375 C 170.496094 259.570312 170.773438 260.800781 170.773438 262.421875 L 170.773438 263.390625 L 165.324219 263.390625 L 165.324219 264.03125 C 165.324219 265.507812 165.5 266.609375 165.84375 267.339844 C 166.191406 268.070312 166.707031 268.4375 167.394531 268.4375 C 168.023438 268.4375 168.523438 268.183594 168.886719 267.679688 C 169.246094 267.179688 169.449219 266.464844 169.480469 265.539062 L 170.714844 265.539062 " fill-opacity="1" fill-rule="nonzero"/><path fill="#ffffff" d="M 183.300781 269.210938 L 183.300781 261.488281 C 183.300781 260.273438 183.175781 259.488281 182.921875 259.121094 C 182.675781 258.753906 182.222656 258.566406 181.566406 258.566406 C 180.964844 258.566406 180.417969 258.769531 179.929688 259.171875 C 179.441406 259.574219 179.195312 260.003906 179.195312 260.464844 L 179.195312 269.210938 L 177.945312 269.210938 L 177.945312 257.753906 L 179.070312 257.753906 L 179.070312 259.007812 C 179.453125 258.46875 179.871094 258.078125 180.320312 257.832031 C 180.773438 257.585938 181.285156 257.457031 181.863281 257.457031 C 182.800781 257.457031 183.484375 257.746094 183.914062 258.320312 C 184.339844 258.894531 184.554688 259.816406 184.554688 261.089844 L 184.554688 269.210938 L 183.300781 269.210938 " fill-opacity="1" fill-rule="nonzero"/><path fill="#ffffff" d="M 188.121094 263.515625 C 188.121094 265.132812 188.316406 266.351562 188.710938 267.179688 C 189.109375 268.003906 189.699219 268.414062 190.480469 268.414062 C 191.257812 268.414062 191.851562 268.003906 192.25 267.171875 C 192.652344 266.34375 192.851562 265.125 192.851562 263.515625 C 192.851562 261.902344 192.652344 260.683594 192.25 259.855469 C 191.851562 259.023438 191.257812 258.609375 190.480469 258.609375 C 189.699219 258.609375 189.109375 259.023438 188.710938 259.847656 C 188.316406 260.675781 188.121094 261.894531 188.121094 263.515625 Z M 186.804688 263.515625 C 186.804688 261.5 187.109375 259.992188 187.726562 258.988281 C 188.339844 257.980469 189.257812 257.480469 190.480469 257.480469 C 191.703125 257.480469 192.617188 257.980469 193.230469 258.988281 C 193.839844 259.992188 194.144531 261.5 194.144531 263.515625 C 194.144531 265.527344 193.84375 267.03125 193.234375 268.027344 C 192.628906 269.027344 191.707031 269.527344 190.480469 269.527344 C 189.242188 269.527344 188.320312 269.027344 187.714844 268.027344 C 187.109375 267.03125 186.804688 265.527344 186.804688 263.515625 " fill-opacity="1" fill-rule="nonzero"/><path fill="#ffffff" d="M 201.710938 269.210938 L 201.710938 258.773438 L 200.519531 258.773438 L 200.519531 257.753906 L 201.710938 257.753906 L 201.710938 256.222656 C 201.710938 255.265625 201.871094 254.589844 202.191406 254.191406 C 202.511719 253.792969 203.046875 253.59375 203.800781 253.59375 C 203.917969 253.59375 204.101562 253.605469 204.351562 253.625 L 204.460938 253.636719 L 204.460938 254.675781 L 204.300781 254.667969 C 204.238281 254.664062 204.15625 254.664062 204.042969 254.664062 C 203.640625 254.664062 203.355469 254.773438 203.207031 254.988281 C 203.0625 255.199219 202.984375 255.699219 202.984375 256.480469 L 202.984375 257.753906 L 204.460938 257.753906 L 204.460938 258.773438 L 202.984375 258.773438 L 202.984375 269.210938 L 201.710938 269.210938 " fill-opacity="1" fill-rule="nonzero"/><path fill="#ffffff" d="M 207.070312 263.515625 C 207.070312 265.132812 207.269531 266.351562 207.664062 267.179688 C 208.0625 268.003906 208.652344 268.414062 209.433594 268.414062 C 210.210938 268.414062 210.804688 268.003906 211.207031 267.171875 C 211.601562 266.34375 211.804688 265.125 211.804688 263.515625 C 211.804688 261.902344 211.601562 260.683594 211.207031 259.855469 C 210.804688 259.023438 210.210938 258.609375 209.433594 258.609375 C 208.652344 258.609375 208.0625 259.023438 207.664062 259.847656 C 207.269531 260.675781 207.070312 261.894531 207.070312 263.515625 Z M 205.757812 263.515625 C 205.757812 261.5 206.0625 259.992188 206.675781 258.988281 C 207.292969 257.980469 208.210938 257.480469 209.433594 257.480469 C 210.65625 257.480469 211.570312 257.980469 212.179688 258.988281 C 212.792969 259.992188 213.097656 261.5 213.097656 263.515625 C 213.097656 265.527344 212.796875 267.03125 212.1875 268.027344 C 211.582031 269.027344 210.664062 269.527344 209.433594 269.527344 C 208.199219 269.527344 207.277344 269.027344 206.667969 268.027344 C 206.058594 267.03125 205.757812 265.527344 205.757812 263.515625 " fill-opacity="1" fill-rule="nonzero"/><path fill="#ffffff" d="M 216.621094 257.753906 L 216.621094 265.488281 C 216.621094 266.703125 216.75 267.484375 216.996094 267.851562 C 217.25 268.214844 217.703125 268.394531 218.351562 268.394531 C 218.957031 268.394531 219.503906 268.195312 219.992188 267.792969 C 220.484375 267.390625 220.726562 266.960938 220.726562 266.5 L 220.726562 257.753906 L 221.980469 257.753906 L 221.980469 269.210938 L 220.855469 269.210938 L 220.855469 267.957031 C 220.46875 268.488281 220.050781 268.878906 219.601562 269.128906 C 219.148438 269.382812 218.632812 269.507812 218.058594 269.507812 C 217.121094 269.507812 216.441406 269.222656 216.011719 268.652344 C 215.585938 268.078125 215.371094 267.160156 215.371094 265.886719 L 215.371094 257.753906 L 216.621094 257.753906 " fill-opacity="1" fill-rule="nonzero"/><path fill="#ffffff" d="M 229.960938 269.210938 L 229.960938 261.488281 C 229.960938 260.273438 229.835938 259.488281 229.585938 259.121094 C 229.332031 258.753906 228.886719 258.566406 228.230469 258.566406 C 227.628906 258.566406 227.082031 258.769531 226.589844 259.171875 C 226.101562 259.574219 225.859375 260.003906 225.859375 260.464844 L 225.859375 269.210938 L 224.605469 269.210938 L 224.605469 257.753906 L 225.738281 257.753906 L 225.738281 259.007812 C 226.117188 258.46875 226.53125 258.078125 226.984375 257.832031 C 227.4375 257.585938 227.949219 257.457031 228.527344 257.457031 C 229.464844 257.457031 230.148438 257.746094 230.574219 258.320312 C 231.003906 258.894531 231.214844 259.816406 231.214844 261.089844 L 231.214844 269.210938 L 229.960938 269.210938 " fill-opacity="1" fill-rule="nonzero"/><path fill="#ffffff" d="M 239.394531 263.472656 C 239.394531 261.679688 239.214844 260.40625 238.859375 259.648438 C 238.5 258.898438 237.917969 258.515625 237.101562 258.515625 C 236.300781 258.515625 235.714844 258.921875 235.339844 259.726562 C 234.964844 260.53125 234.78125 261.792969 234.78125 263.515625 C 234.78125 265.273438 234.960938 266.542969 235.320312 267.316406 C 235.683594 268.089844 236.261719 268.476562 237.0625 268.476562 C 237.890625 268.476562 238.484375 268.09375 238.847656 267.332031 C 239.210938 266.566406 239.394531 265.28125 239.394531 263.472656 Z M 240.605469 253.65625 L 240.605469 269.210938 L 239.394531 269.210938 L 239.394531 268.019531 C 239.054688 268.535156 238.683594 268.914062 238.285156 269.160156 C 237.882812 269.402344 237.425781 269.527344 236.910156 269.527344 C 235.714844 269.527344 234.839844 269.046875 234.292969 268.089844 C 233.742188 267.132812 233.46875 265.605469 233.46875 263.515625 C 233.46875 261.460938 233.757812 259.929688 234.339844 258.925781 C 234.917969 257.921875 235.792969 257.417969 236.96875 257.417969 C 237.507812 257.417969 237.972656 257.535156 238.371094 257.765625 C 238.769531 257.996094 239.109375 258.347656 239.394531 258.8125 L 239.394531 253.65625 L 240.605469 253.65625 " fill-opacity="1" fill-rule="nonzero"/><g clip-path="url(#66820990e2)"><path fill="#1d2d40" d="M 353.164062 351.105469 C 356.367188 351.121094 359.570312 351.152344 362.769531 351.199219 L 362.8125 348.421875 C 359.601562 348.375 356.390625 348.34375 353.179688 348.328125 L 353.167969 351.105469 " fill-opacity="1" fill-rule="nonzero"/></g><g clip-path="url(#1a8c619a5a)"><path fill="#1d2d40" d="M 335.53125 351.199219 C 339.433594 351.144531 343.339844 351.109375 347.242188 351.097656 L 347.234375 348.320312 C 343.320312 348.332031 339.402344 348.367188 335.492188 348.421875 L 335.53125 351.199219 " fill-opacity="1" fill-rule="nonzero"/></g><g clip-path="url(#63f3e3808d)"><path fill="#1d2d40" d="M 54.320312 351.152344 C 95.300781 351.113281 136.003906 351.089844 176.667969 351.089844 C 226.386719 351.089844 276.046875 351.125 326.078125 351.199219 L 326.082031 348.421875 C 276.050781 348.347656 226.390625 348.3125 176.667969 348.3125 C 136.003906 348.3125 95.300781 348.335938 54.316406 348.375 L 54.320312 351.152344 " fill-opacity="1" fill-rule="nonzero"/></g><g clip-path="url(#f5e32e46e5)"><path fill="#1d2d40" d="M 14.984375 351.199219 C 23.152344 351.191406 31.320312 351.179688 39.488281 351.171875 L 39.484375 348.394531 C 31.316406 348.402344 23.148438 348.414062 14.980469 348.421875 L 14.984375 351.199219 " fill-opacity="1" fill-rule="nonzero"/></g><path fill="#ffffff" d="M 367.628906 162.652344 C 366.175781 162.652344 364.824219 163.089844 363.707031 163.835938 C 363.773438 163.453125 363.808594 163.054688 363.808594 162.652344 C 363.808594 158.84375 360.683594 155.753906 356.820312 155.753906 C 355.980469 155.753906 355.179688 155.902344 354.4375 156.171875 C 354.515625 155.503906 354.558594 154.832031 354.558594 154.144531 C 354.558594 144.796875 346.984375 137.214844 337.644531 137.214844 C 328.730469 137.214844 321.433594 144.113281 320.78125 152.863281 C 319.585938 152.214844 318.214844 151.847656 316.761719 151.847656 C 312.089844 151.847656 308.300781 155.640625 308.300781 160.316406 C 308.300781 161.066406 308.402344 161.792969 308.582031 162.488281 C 307.460938 162.0625 306.199219 161.824219 304.867188 161.824219 C 300.195312 161.824219 296.410156 164.742188 296.410156 168.347656 C 296.410156 171.945312 300.195312 174.867188 304.867188 174.867188 C 306.101562 174.867188 307.265625 174.660156 308.324219 174.296875 C 308.726562 179.125 314.835938 182.957031 322.3125 182.957031 C 327.460938 182.957031 331.960938 181.136719 334.394531 178.425781 C 335.285156 180.617188 337.941406 182.210938 341.078125 182.210938 C 343.9375 182.210938 346.394531 180.886719 347.488281 178.992188 C 348.773438 181.339844 351.792969 182.992188 355.316406 182.992188 C 360.007812 182.992188 363.808594 180.058594 363.808594 176.441406 C 363.808594 176.023438 363.757812 175.621094 363.660156 175.222656 C 364.789062 175.992188 366.152344 176.441406 367.628906 176.441406 C 371.484375 176.441406 374.613281 173.351562 374.613281 169.546875 C 374.613281 165.738281 371.484375 162.652344 367.628906 162.652344 " fill-opacity="1" fill-rule="nonzero"/><path fill="#ffffff" d="M 71.601562 173.039062 C 70.144531 173.039062 68.796875 173.480469 67.683594 174.226562 C 67.75 173.839844 67.78125 173.441406 67.78125 173.039062 C 67.78125 169.230469 64.65625 166.144531 60.796875 166.144531 C 59.960938 166.144531 59.152344 166.289062 58.410156 166.558594 C 58.488281 165.890625 58.53125 165.21875 58.53125 164.535156 C 58.53125 155.183594 50.960938 147.601562 41.617188 147.601562 C 32.707031 147.601562 25.410156 154.5 24.753906 163.25 C 23.558594 162.605469 22.191406 162.234375 20.738281 162.234375 C 16.066406 162.234375 12.277344 166.027344 12.277344 170.703125 C 12.277344 171.453125 12.375 172.179688 12.558594 172.875 C 11.441406 172.453125 10.175781 172.214844 8.839844 172.214844 C 4.167969 172.214844 0.382812 175.132812 0.382812 178.734375 C 0.382812 182.332031 4.167969 185.253906 8.839844 185.253906 C 10.074219 185.253906 11.242188 185.046875 12.300781 184.683594 C 12.699219 189.511719 18.8125 193.34375 26.285156 193.34375 C 31.4375 193.34375 35.9375 191.527344 38.371094 188.8125 C 39.261719 191.003906 41.917969 192.597656 45.050781 192.597656 C 47.917969 192.597656 50.371094 191.273438 51.460938 189.378906 C 52.746094 191.726562 55.773438 193.378906 59.292969 193.378906 C 63.984375 193.378906 67.78125 190.449219 67.78125 186.832031 C 67.78125 186.414062 67.734375 186.007812 67.636719 185.613281 C 68.761719 186.378906 70.132812 186.832031 71.601562 186.832031 C 75.457031 186.832031 78.585938 183.742188 78.585938 179.933594 C 78.585938 176.125 75.457031 173.039062 71.601562 173.039062 " fill-opacity="1" fill-rule="nonzero"/><path fill="#ffffff" d="M 290.140625 68.886719 C 286.914062 68.886719 283.691406 68.886719 280.464844 68.886719 L 280.464844 71.664062 C 283.691406 71.664062 286.914062 71.664062 290.140625 71.664062 L 290.140625 68.886719 " fill-opacity="1" fill-rule="nonzero"/><path fill="#ffffff" d="M 324.957031 68.886719 C 316.363281 68.886719 307.761719 68.886719 299.164062 68.886719 L 299.164062 71.664062 C 307.761719 71.664062 316.363281 71.664062 324.957031 71.664062 L 324.957031 68.886719 " fill-opacity="1" fill-rule="nonzero"/><path fill="#ffffff" d="M 340.273438 68.886719 C 338.574219 68.886719 336.867188 68.886719 335.164062 68.886719 L 335.164062 71.664062 C 336.867188 71.664062 338.574219 71.664062 340.273438 71.664062 L 340.273438 68.886719 " fill-opacity="1" fill-rule="nonzero"/><path fill="#ffffff" d="M 27.980469 239.535156 C 24.757812 239.535156 21.53125 239.535156 18.308594 239.535156 L 18.308594 242.3125 C 21.53125 242.3125 24.757812 242.3125 27.980469 242.3125 L 27.980469 239.535156 " fill-opacity="1" fill-rule="nonzero"/><path fill="#ffffff" d="M 62.804688 239.535156 C 54.203125 239.535156 45.609375 239.535156 37.007812 239.535156 L 37.007812 242.3125 C 45.609375 242.3125 54.203125 242.3125 62.804688 242.3125 L 62.804688 239.535156 " fill-opacity="1" fill-rule="nonzero"/><path fill="#ffffff" d="M 78.117188 239.535156 C 76.414062 239.535156 74.710938 239.535156 73.011719 239.535156 L 73.011719 242.3125 C 74.710938 242.3125 76.414062 242.3125 78.117188 242.3125 L 78.117188 239.535156 " fill-opacity="1" fill-rule="nonzero"/><path fill="#ffffff" d="M 49.554688 77.195312 C 47.402344 77.195312 45.253906 77.195312 43.105469 77.195312 L 43.105469 79.972656 C 45.257812 79.972656 47.402344 79.972656 49.554688 79.972656 L 49.554688 77.195312 " fill-opacity="1" fill-rule="nonzero"/><path fill="#ffffff" d="M 87.601562 77.195312 C 77.066406 77.195312 66.53125 77.195312 56.003906 77.195312 L 56.003906 79.972656 C 66.535156 79.972656 77.066406 79.972656 87.601562 79.972656 L 87.601562 77.195312 " fill-opacity="1" fill-rule="nonzero"/><path fill="#ffffff" d="M 102.914062 77.195312 C 101.210938 77.195312 99.507812 77.195312 97.804688 77.195312 L 97.804688 79.972656 C 99.507812 79.972656 101.210938 79.972656 102.914062 79.972656 L 102.914062 77.195312 " fill-opacity="1" fill-rule="nonzero"/><path fill="#ffffff" d="M 293.675781 318.871094 L 358.480469 318.871094 L 358.480469 316.09375 L 293.675781 316.09375 Z M 293.675781 318.871094 " fill-opacity="1" fill-rule="nonzero"/></svg>